<?xml version="1.0" encoding="UTF-8" standalone="no"?>
<!DOCTYPE svg PUBLIC "-//W3C//DTD SVG 1.1//EN"
 "http://www.w3.org/Graphics/SVG/1.1/DTD/svg11.dtd">
<!-- Generated by graphviz version 2.43.0 (0)
 -->
<!-- Title: dependency&#45;cruiser output Pages: 1 -->
<svg width="631pt" height="625pt"
 viewBox="0.00 0.00 631.00 625.12" xmlns="http://www.w3.org/2000/svg" xmlns:xlink="http://www.w3.org/1999/xlink">
<g id="graph0" class="graph" transform="scale(1 1) rotate(0) translate(4 621.12)">
<title>dependency&#45;cruiser output</title>
<polygon fill="white" stroke="transparent" points="-4,4 -4,-621.12 627,-621.12 627,4 -4,4"/>
<g id="clust1" class="cluster">
<title>cluster_node_modules</title>
<path fill="#ffffff" stroke="black" stroke-width="2" d="M457,-316.76C457,-316.76 603,-316.76 603,-316.76 609,-316.76 615,-322.76 615,-328.76 615,-328.76 615,-506.76 615,-506.76 615,-512.76 609,-518.76 603,-518.76 603,-518.76 457,-518.76 457,-518.76 451,-518.76 445,-512.76 445,-506.76 445,-506.76 445,-328.76 445,-328.76 445,-322.76 451,-316.76 457,-316.76"/>
<text text-anchor="middle" x="530" y="-507.56" font-family="Helvetica,sans-Serif" font-weight="bold" font-size="9.00">node_modules</text>
</g>
<g id="clust2" class="cluster">
<title>cluster_vscode&#45;trace&#45;common</title>
<path fill="#ffffff" stroke="black" stroke-width="2" d="M320,-30.76C320,-30.76 425,-30.76 425,-30.76 431,-30.76 437,-36.76 437,-42.76 437,-42.76 437,-194.76 437,-194.76 437,-200.76 431,-206.76 425,-206.76 425,-206.76 320,-206.76 320,-206.76 314,-206.76 308,-200.76 308,-194.76 308,-194.76 308,-42.76 308,-42.76 308,-36.76 314,-30.76 320,-30.76"/>
<text text-anchor="middle" x="372.5" y="-195.56" font-family="Helvetica,sans-Serif" font-weight="bold" font-size="9.00">vscode&#45;trace&#45;common</text>
</g>
<g id="clust3" class="cluster">
<title>cluster_vscode&#45;trace&#45;common/lib</title>
<path fill="#ffffff" stroke="black" stroke-width="2" d="M346,-38.76C346,-38.76 399,-38.76 399,-38.76 405,-38.76 411,-44.76 411,-50.76 411,-50.76 411,-168.76 411,-168.76 411,-174.76 405,-180.76 399,-180.76 399,-180.76 346,-180.76 346,-180.76 340,-180.76 334,-174.76 334,-168.76 334,-168.76 334,-50.76 334,-50.76 334,-44.76 340,-38.76 346,-38.76"/>
<text text-anchor="middle" x="372.5" y="-169.56" font-family="Helvetica,sans-Serif" font-weight="bold" font-size="9.00">lib</text>
</g>
<g id="clust4" class="cluster">
<title>cluster_vscode&#45;trace&#45;extension</title>
<path fill="#ffffff" stroke="black" stroke-width="2" d="M20,-240.76C20,-240.76 403.5,-240.76 403.5,-240.76 409.5,-240.76 415.5,-246.76 415.5,-252.76 415.5,-252.76 415.5,-386.76 415.5,-386.76 415.5,-392.76 409.5,-398.76 403.5,-398.76 403.5,-398.76 20,-398.76 20,-398.76 14,-398.76 8,-392.76 8,-386.76 8,-386.76 8,-252.76 8,-252.76 8,-246.76 14,-240.76 20,-240.76"/>
<text text-anchor="middle" x="211.75" y="-387.56" font-family="Helvetica,sans-Serif" font-weight="bold" font-size="9.00">vscode&#45;trace&#45;extension</text>
</g>
<g id="clust5" class="cluster">
<title>cluster_vscode&#45;trace&#45;extension/src</title>
<path fill="#ffffff" stroke="black" stroke-width="2" d="M28,-248.76C28,-248.76 395.5,-248.76 395.5,-248.76 401.5,-248.76 407.5,-254.76 407.5,-260.76 407.5,-260.76 407.5,-360.76 407.5,-360.76 407.5,-366.76 401.5,-372.76 395.5,-372.76 395.5,-372.76 28,-372.76 28,-372.76 22,-372.76 16,-366.76 16,-360.76 16,-360.76 16,-260.76 16,-260.76 16,-254.76 22,-248.76 28,-248.76"/>
<text text-anchor="middle" x="211.75" y="-361.56" font-family="Helvetica,sans-Serif" font-weight="bold" font-size="9.00">src</text>
</g>
<!-- fs -->
<g id="node1" class="node">
<title>fs</title>
<g id="a_node1"><a xlink:href="https://nodejs.org/api/fs.html" xlink:title="fs">
<path fill="#ffffcc" stroke="grey" d="M393.5,-500.76C393.5,-500.76 351.5,-500.76 351.5,-500.76 348.5,-500.76 345.5,-497.76 345.5,-494.76 345.5,-494.76 345.5,-488.76 345.5,-488.76 345.5,-485.76 348.5,-482.76 351.5,-482.76 351.5,-482.76 393.5,-482.76 393.5,-482.76 396.5,-482.76 399.5,-485.76 399.5,-488.76 399.5,-488.76 399.5,-494.76 399.5,-494.76 399.5,-497.76 396.5,-500.76 393.5,-500.76"/>
<text text-anchor="middle" x="372.5" y="-489.56" font-family="Helvetica,sans-Serif" font-size="9.00" fill="grey">fs</text>
</a>
</g>
</g>
<!-- node_modules/@playwright -->
<g id="node2" class="node">
<title>node_modules/@playwright</title>
<g id="a_node2"><a xlink:href="https://www.npmjs.com/package/" xlink:title="@playwright">
<polygon fill="#c40b0a" fill-opacity="0.101961" stroke="black" points="567,-492.76 495,-492.76 493,-490.76 493,-474.76 565,-474.76 567,-476.76 567,-492.76"/>
<polyline fill="none" stroke="black" points="565,-490.76 493,-490.76 "/>
<polyline fill="none" stroke="black" points="565,-490.76 565,-474.76 "/>
<polyline fill="none" stroke="black" points="565,-490.76 567,-492.76 "/>
<text text-anchor="start" x="501" y="-481.56" font-family="Helvetica,sans-Serif" font-size="9.00" fill="#c40b0a">@playwright</text>
</a>
</g>
</g>
<!-- node_modules/@types -->
<g id="node3" class="node">
<title>node_modules/@types</title>
<g id="a_node3"><a xlink:href="https://www.npmjs.com/package/" xlink:title="@types">
<polygon fill="#c40b0a" fill-opacity="0.101961" stroke="black" points="557,-342.76 505,-342.76 503,-340.76 503,-324.76 555,-324.76 557,-326.76 557,-342.76"/>
<polyline fill="none" stroke="black" points="555,-340.76 503,-340.76 "/>
<polyline fill="none" stroke="black" points="555,-340.76 555,-324.76 "/>
<polyline fill="none" stroke="black" points="555,-340.76 557,-342.76 "/>
<text text-anchor="start" x="513" y="-331.56" font-family="Helvetica,sans-Serif" font-size="9.00" fill="#c40b0a">@types</text>
</a>
</g>
</g>
<!-- node_modules/json&#45;bigint -->
<g id="node4" class="node">
<title>node_modules/json&#45;bigint</title>
<g id="a_node4"><a xlink:href="https://www.npmjs.com/package/json-bigint" xlink:title="json&#45;bigint">
<polygon fill="#c40b0a" fill-opacity="0.101961" stroke="black" points="562,-432.76 500,-432.76 498,-430.76 498,-414.76 560,-414.76 562,-416.76 562,-432.76"/>
<polyline fill="none" stroke="black" points="560,-430.76 498,-430.76 "/>
<polyline fill="none" stroke="black" points="560,-430.76 560,-414.76 "/>
<polyline fill="none" stroke="black" points="560,-430.76 562,-432.76 "/>
<text text-anchor="start" x="506" y="-421.56" font-family="Helvetica,sans-Serif" font-size="9.00" fill="#c40b0a">json&#45;bigint</text>
</a>
</g>
</g>
<!-- node_modules/traceviewer&#45;base -->
<g id="node5" class="node">
<title>node_modules/traceviewer&#45;base</title>
<g id="a_node5"><a xlink:href="https://www.npmjs.com/package/traceviewer-base" xlink:title="traceviewer&#45;base">
<polygon fill="#c40b0a" fill-opacity="0.101961" stroke="black" points="576,-402.76 486,-402.76 484,-400.76 484,-384.76 574,-384.76 576,-386.76 576,-402.76"/>
<polyline fill="none" stroke="black" points="574,-400.76 484,-400.76 "/>
<polyline fill="none" stroke="black" points="574,-400.76 574,-384.76 "/>
<polyline fill="none" stroke="black" points="574,-400.76 576,-402.76 "/>
<text text-anchor="start" x="492" y="-391.56" font-family="Helvetica,sans-Serif" font-size="9.00" fill="#c40b0a">traceviewer&#45;base</text>
</a>
</g>
</g>
<!-- node_modules/traceviewer&#45;react&#45;components -->
<g id="node6" class="node">
<title>node_modules/traceviewer&#45;react&#45;components</title>
<g id="a_node6"><a xlink:href="https://www.npmjs.com/package/traceviewer-react-components" xlink:title="traceviewer&#45;react&#45;components">
<polygon fill="#c40b0a" fill-opacity="0.101961" stroke="black" points="607,-462.76 455,-462.76 453,-460.76 453,-444.76 605,-444.76 607,-446.76 607,-462.76"/>
<polyline fill="none" stroke="black" points="605,-460.76 453,-460.76 "/>
<polyline fill="none" stroke="black" points="605,-460.76 605,-444.76 "/>
<polyline fill="none" stroke="black" points="605,-460.76 607,-462.76 "/>
<text text-anchor="start" x="461" y="-451.56" font-family="Helvetica,sans-Serif" font-size="9.00" fill="#c40b0a">traceviewer&#45;react&#45;components</text>
</a>
</g>
</g>
<!-- node_modules/tsp&#45;typescript&#45;client -->
<g id="node7" class="node">
<title>node_modules/tsp&#45;typescript&#45;client</title>
<g id="a_node7"><a xlink:href="https://www.npmjs.com/package/tsp-typescript-client" xlink:title="tsp&#45;typescript&#45;client">
<polygon fill="#c40b0a" fill-opacity="0.101961" stroke="black" points="583.5,-372.76 478.5,-372.76 476.5,-370.76 476.5,-354.76 581.5,-354.76 583.5,-356.76 583.5,-372.76"/>
<polyline fill="none" stroke="black" points="581.5,-370.76 476.5,-370.76 "/>
<polyline fill="none" stroke="black" points="581.5,-370.76 581.5,-354.76 "/>
<polyline fill="none" stroke="black" points="581.5,-370.76 583.5,-372.76 "/>
<text text-anchor="start" x="484.5" y="-361.56" font-family="Helvetica,sans-Serif" font-size="9.00" fill="#c40b0a">tsp&#45;typescript&#45;client</text>
</a>
</g>
</g>
<!-- path -->
<g id="node8" class="node">
<title>path</title>
<g id="a_node8"><a xlink:href="https://nodejs.org/api/path.html" xlink:title="path">
<path fill="#ffffcc" stroke="grey" d="M393.5,-232.76C393.5,-232.76 351.5,-232.76 351.5,-232.76 348.5,-232.76 345.5,-229.76 345.5,-226.76 345.5,-226.76 345.5,-220.76 345.5,-220.76 345.5,-217.76 348.5,-214.76 351.5,-214.76 351.5,-214.76 393.5,-214.76 393.5,-214.76 396.5,-214.76 399.5,-217.76 399.5,-220.76 399.5,-220.76 399.5,-226.76 399.5,-226.76 399.5,-229.76 396.5,-232.76 393.5,-232.76"/>
<text text-anchor="middle" x="372.5" y="-221.56" font-family="Helvetica,sans-Serif" font-size="9.00" fill="grey">path</text>
</a>
</g>
</g>
<!-- vscode&#45;trace&#45;common/lib/client/ -->
<g id="node9" class="node">
<title>vscode&#45;trace&#45;common/lib/client/</title>
<g id="a_node9"><a xlink:href="vscode-trace-common/lib/client/" xlink:title="client">
<polygon fill="#ffffcc" stroke="black" points="399.5,-64.76 347.5,-64.76 345.5,-62.76 345.5,-46.76 397.5,-46.76 399.5,-48.76 399.5,-64.76"/>
<polyline fill="none" stroke="black" points="397.5,-62.76 345.5,-62.76 "/>
<polyline fill="none" stroke="black" points="397.5,-62.76 397.5,-46.76 "/>
<polyline fill="none" stroke="black" points="397.5,-62.76 399.5,-64.76 "/>
<text text-anchor="start" x="360" y="-53.56" font-family="Helvetica,sans-Serif" font-size="9.00">client</text>
</a>
</g>
</g>
<!-- vscode&#45;trace&#45;common/lib/client/&#45;&gt;node_modules/traceviewer&#45;base -->
<g id="edge1" class="edge">
<title>vscode&#45;trace&#45;common/lib/client/&#45;&gt;node_modules/traceviewer&#45;base</title>
<path fill="none" stroke="#000000" stroke-opacity="0.200000" d="M399.67,-54.92C412.97,-56 428.14,-59.86 437,-70.76 458.59,-97.33 422.68,-352.8 445,-378.76 453.22,-388.32 465.25,-393.18 477.65,-395.42"/>
<polygon fill="#000000" fill-opacity="0.200000" stroke="#000000" stroke-opacity="0.200000" points="477.52,-397.52 483.76,-396.31 478.12,-393.36 477.52,-397.52"/>
</g>
<!-- vscode&#45;trace&#45;common/lib/client/&#45;&gt;node_modules/tsp&#45;typescript&#45;client -->
<g id="edge2" class="edge">
<title>vscode&#45;trace&#45;common/lib/client/&#45;&gt;node_modules/tsp&#45;typescript&#45;client</title>
<path fill="none" stroke="#000000" stroke-opacity="0.200000" d="M399.66,-54.93C412.95,-56.02 428.13,-59.88 437,-70.76 456.52,-94.72 424.82,-325.36 445,-348.76 451.57,-356.38 460.56,-361.02 470.23,-363.71"/>
<polygon fill="#000000" fill-opacity="0.200000" stroke="#000000" stroke-opacity="0.200000" points="470,-365.81 476.33,-365.15 470.97,-361.73 470,-365.81"/>
</g>
<!-- vscode&#45;trace&#45;common/lib/messages/ -->
<g id="node10" class="node">
<title>vscode&#45;trace&#45;common/lib/messages/</title>
<g id="a_node10"><a xlink:href="vscode-trace-common/lib/messages/" xlink:title="messages">
<polygon fill="#ffffcc" stroke="black" points="403,-94.76 344,-94.76 342,-92.76 342,-76.76 401,-76.76 403,-78.76 403,-94.76"/>
<polyline fill="none" stroke="black" points="401,-92.76 342,-92.76 "/>
<polyline fill="none" stroke="black" points="401,-92.76 401,-76.76 "/>
<polyline fill="none" stroke="black" points="401,-92.76 403,-94.76 "/>
<text text-anchor="start" x="350" y="-83.56" font-family="Helvetica,sans-Serif" font-size="9.00">messages</text>
</a>
</g>
</g>
<!-- vscode&#45;trace&#45;common/lib/messages/&#45;&gt;node_modules/json&#45;bigint -->
<g id="edge3" class="edge">
<title>vscode&#45;trace&#45;common/lib/messages/&#45;&gt;node_modules/json&#45;bigint</title>
<path fill="none" stroke="#000000" stroke-opacity="0.200000" d="M403.25,-85.28C415.61,-86.74 428.93,-90.83 437,-100.76 458.59,-127.33 422.68,-382.8 445,-408.76 456.35,-421.97 474.99,-426.21 491.83,-426.94"/>
<polygon fill="#000000" fill-opacity="0.200000" stroke="#000000" stroke-opacity="0.200000" points="491.9,-429.04 497.94,-427.05 491.98,-424.84 491.9,-429.04"/>
</g>
<!-- vscode&#45;trace&#45;common/lib/messages/&#45;&gt;node_modules/traceviewer&#45;base -->
<g id="edge4" class="edge">
<title>vscode&#45;trace&#45;common/lib/messages/&#45;&gt;node_modules/traceviewer&#45;base</title>
<path fill="none" stroke="#000000" stroke-opacity="0.200000" d="M403.24,-85.29C415.59,-86.76 428.91,-90.84 437,-100.76 456.52,-124.72 424.82,-355.36 445,-378.76 453.23,-388.31 465.27,-393.17 477.67,-395.4"/>
<polygon fill="#000000" fill-opacity="0.200000" stroke="#000000" stroke-opacity="0.200000" points="477.53,-397.5 483.78,-396.29 478.14,-393.35 477.53,-397.5"/>
</g>
<!-- vscode&#45;trace&#45;common/lib/server/ -->
<g id="node11" class="node">
<title>vscode&#45;trace&#45;common/lib/server/</title>
<g id="a_node11"><a xlink:href="vscode-trace-common/lib/server/" xlink:title="server">
<polygon fill="#ffffcc" stroke="black" points="399.5,-124.76 347.5,-124.76 345.5,-122.76 345.5,-106.76 397.5,-106.76 399.5,-108.76 399.5,-124.76"/>
<polyline fill="none" stroke="black" points="397.5,-122.76 345.5,-122.76 "/>
<polyline fill="none" stroke="black" points="397.5,-122.76 397.5,-106.76 "/>
<polyline fill="none" stroke="black" points="397.5,-122.76 399.5,-124.76 "/>
<text text-anchor="start" x="358.5" y="-113.56" font-family="Helvetica,sans-Serif" font-size="9.00">server</text>
</a>
</g>
</g>
<!-- vscode&#45;trace&#45;common/lib/signals/ -->
<g id="node12" class="node">
<title>vscode&#45;trace&#45;common/lib/signals/</title>
<g id="a_node12"><a xlink:href="vscode-trace-common/lib/signals/" xlink:title="signals">
<polygon fill="#ffffcc" stroke="black" points="399.5,-154.76 347.5,-154.76 345.5,-152.76 345.5,-136.76 397.5,-136.76 399.5,-138.76 399.5,-154.76"/>
<polyline fill="none" stroke="black" points="397.5,-152.76 345.5,-152.76 "/>
<polyline fill="none" stroke="black" points="397.5,-152.76 397.5,-136.76 "/>
<polyline fill="none" stroke="black" points="397.5,-152.76 399.5,-154.76 "/>
<text text-anchor="start" x="357" y="-143.56" font-family="Helvetica,sans-Serif" font-size="9.00">signals</text>
</a>
</g>
</g>
<!-- vscode&#45;trace&#45;extension/src/common/ -->
<g id="node13" class="node">
<title>vscode&#45;trace&#45;extension/src/common/</title>
<g id="a_node13"><a xlink:href="vscode-trace-extension/src/common/" xlink:title="common">
<polygon fill="#ffffcc" stroke="black" points="199.5,-346.76 145.5,-346.76 143.5,-344.76 143.5,-328.76 197.5,-328.76 199.5,-330.76 199.5,-346.76"/>
<polyline fill="none" stroke="black" points="197.5,-344.76 143.5,-344.76 "/>
<polyline fill="none" stroke="black" points="197.5,-344.76 197.5,-328.76 "/>
<polyline fill="none" stroke="black" points="197.5,-344.76 199.5,-346.76 "/>
<text text-anchor="start" x="151.5" y="-335.56" font-family="Helvetica,sans-Serif" font-size="9.00">common</text>
</a>
</g>
</g>
<!-- vscode&#45;trace&#45;extension/src/common/&#45;&gt;node_modules/@types -->
<g id="edge6" class="edge">
<title>vscode&#45;trace&#45;extension/src/common/&#45;&gt;node_modules/@types</title>
<path fill="none" stroke="#000000" stroke-opacity="0.200000" d="M176.39,-347.11C189.51,-377.24 235.45,-471.94 308,-506.76 359.69,-531.57 395.45,-546.27 437,-506.76 449.74,-494.65 433.38,-361.95 445,-348.76 457.56,-334.51 478.62,-330.77 496.51,-330.59"/>
<polygon fill="#000000" fill-opacity="0.200000" stroke="#000000" stroke-opacity="0.200000" points="496.91,-332.7 502.93,-330.68 496.96,-328.5 496.91,-332.7"/>
</g>
<!-- vscode&#45;trace&#45;extension/src/common/&#45;&gt;node_modules/traceviewer&#45;base -->
<g id="edge5" class="edge">
<title>vscode&#45;trace&#45;extension/src/common/&#45;&gt;node_modules/traceviewer&#45;base</title>
<path fill="none" stroke="#000000" stroke-opacity="0.200000" d="M173.63,-346.95C176.92,-370.3 188.32,-432.88 220,-472.76 248.83,-509.07 263.49,-515.8 308,-528.76 363.05,-544.79 395.13,-567.93 437,-528.76 456.52,-510.51 427.17,-428.67 445,-408.76 453.32,-399.47 465.26,-394.67 477.53,-392.41"/>
<polygon fill="#000000" fill-opacity="0.200000" stroke="#000000" stroke-opacity="0.200000" points="477.95,-394.47 483.57,-391.49 477.33,-390.32 477.95,-394.47"/>
</g>
<!-- vscode&#45;trace&#45;extension/src/extension.ts -->
<g id="node14" class="node">
<title>vscode&#45;trace&#45;extension/src/extension.ts</title>
<g id="a_node14"><a xlink:href="vscode-trace-extension/src/extension.ts" xlink:title="extension.ts">
<path fill="#ddfeff" stroke="black" d="M201,-288.76C201,-288.76 142,-288.76 142,-288.76 139,-288.76 136,-285.76 136,-282.76 136,-282.76 136,-276.76 136,-276.76 136,-273.76 139,-270.76 142,-270.76 142,-270.76 201,-270.76 201,-270.76 204,-270.76 207,-273.76 207,-276.76 207,-276.76 207,-282.76 207,-282.76 207,-285.76 204,-288.76 201,-288.76"/>
<text text-anchor="start" x="144" y="-277.56" font-family="Helvetica,sans-Serif" font-size="9.00">extension.ts</text>
</a>
</g>
</g>
<!-- vscode&#45;trace&#45;extension/src/extension.ts&#45;&gt;node_modules/@types -->
<g id="edge11" class="edge">
<title>vscode&#45;trace&#45;extension/src/extension.ts&#45;&gt;node_modules/@types</title>
<path fill="none" stroke="#000000" stroke-opacity="0.200000" d="M179.86,-288.95C193.1,-305.49 219.64,-338.59 220,-338.76 268.03,-361.76 427.37,-346.09 496.51,-337.89"/>
<polygon fill="#000000" fill-opacity="0.200000" stroke="#000000" stroke-opacity="0.200000" points="496.82,-339.97 502.52,-337.17 496.32,-335.8 496.82,-339.97"/>
</g>
<!-- vscode&#45;trace&#45;extension/src/extension.ts&#45;&gt;vscode&#45;trace&#45;common/lib/client/ -->
<g id="edge12" class="edge">
<title>vscode&#45;trace&#45;extension/src/extension.ts&#45;&gt;vscode&#45;trace&#45;common/lib/client/</title>
<path fill="none" stroke="#000000" stroke-width="2" stroke-opacity="0.200000" d="M173.29,-270.72C175.86,-245.83 185.91,-175.22 220,-129.76 248.25,-92.09 264.84,-89.59 308,-70.76 317.89,-66.45 329.22,-63.27 339.54,-60.97"/>
<polygon fill="#000000" fill-opacity="0.200000" stroke="#000000" stroke-width="2" stroke-opacity="0.200000" points="340.05,-63.01 345.49,-59.72 339.18,-58.9 340.05,-63.01"/>
</g>
<!-- vscode&#45;trace&#45;extension/src/extension.ts&#45;&gt;vscode&#45;trace&#45;common/lib/messages/ -->
<g id="edge13" class="edge">
<title>vscode&#45;trace&#45;extension/src/extension.ts&#45;&gt;vscode&#45;trace&#45;common/lib/messages/</title>
<path fill="none" stroke="#000000" stroke-width="2" stroke-opacity="0.200000" d="M175.81,-270.56C182.32,-253.33 198.08,-215.65 220,-189.76 248.89,-155.64 274.8,-165.7 300,-128.76 307.3,-118.07 298.64,-109.7 308,-100.76 315.53,-93.57 325.85,-89.61 335.97,-87.49"/>
<polygon fill="#000000" fill-opacity="0.200000" stroke="#000000" stroke-width="2" stroke-opacity="0.200000" points="336.35,-89.55 341.89,-86.44 335.62,-85.42 336.35,-89.55"/>
</g>
<!-- vscode&#45;trace&#45;extension/src/extension.ts&#45;&gt;vscode&#45;trace&#45;common/lib/server/ -->
<g id="edge14" class="edge">
<title>vscode&#45;trace&#45;extension/src/extension.ts&#45;&gt;vscode&#45;trace&#45;common/lib/server/</title>
<path fill="none" stroke="#000000" stroke-width="2" stroke-opacity="0.200000" d="M194.81,-270.66C224.25,-257.37 275.23,-229.72 300,-188.76 313.47,-166.5 290.49,-150.02 308,-130.76 315.91,-122.07 327.84,-117.96 339.24,-116.14"/>
<polygon fill="#000000" fill-opacity="0.200000" stroke="#000000" stroke-width="2" stroke-opacity="0.200000" points="339.79,-118.19 345.48,-115.36 339.27,-114.02 339.79,-118.19"/>
</g>
<!-- vscode&#45;trace&#45;extension/src/external&#45;api/ -->
<g id="node15" class="node">
<title>vscode&#45;trace&#45;extension/src/external&#45;api/</title>
<g id="a_node15"><a xlink:href="vscode-trace-extension/src/external-api/" xlink:title="external&#45;api">
<polygon fill="#ffffcc" stroke="black" points="295,-302.76 227,-302.76 225,-300.76 225,-284.76 293,-284.76 295,-286.76 295,-302.76"/>
<polyline fill="none" stroke="black" points="293,-300.76 225,-300.76 "/>
<polyline fill="none" stroke="black" points="293,-300.76 293,-284.76 "/>
<polyline fill="none" stroke="black" points="293,-300.76 295,-302.76 "/>
<text text-anchor="start" x="233" y="-291.56" font-family="Helvetica,sans-Serif" font-size="9.00">external&#45;api</text>
</a>
</g>
</g>
<!-- vscode&#45;trace&#45;extension/src/extension.ts&#45;&gt;vscode&#45;trace&#45;extension/src/external&#45;api/ -->
<g id="edge7" class="edge">
<title>vscode&#45;trace&#45;extension/src/extension.ts&#45;&gt;vscode&#45;trace&#45;extension/src/external&#45;api/</title>
<g id="a_edge7"><a xlink:title="no&#45;circular">
<path fill="none" stroke="orange" stroke-width="2" d="M207.18,-280.96C210.09,-281.37 213.04,-281.82 215.99,-282.3"/>
<polygon fill="orange" stroke="orange" stroke-width="2" points="223.32,-285.74 229.59,-284.72 224.05,-281.6 223.32,-285.74"/>
<polyline fill="none" stroke="orange" stroke-width="2" points="223.68,-283.67 220.73,-283.14 "/>
<ellipse fill="none" stroke="orange" stroke-width="2" cx="218.37" cy="-282.72" rx="2.4" ry="2.4"/>
</a>
</g>
<text text-anchor="middle" x="240.42" y="-275.09" font-family="Helvetica,sans-Serif" font-size="9.00" fill="orange">no&#45;circular</text>
</g>
<!-- vscode&#45;trace&#45;extension/src/trace&#45;explorer/ -->
<g id="node16" class="node">
<title>vscode&#45;trace&#45;extension/src/trace&#45;explorer/</title>
<g id="a_node16"><a xlink:href="vscode-trace-extension/src/trace-explorer/" xlink:title="trace&#45;explorer">
<polygon fill="#ffffcc" stroke="black" points="300,-332.76 222,-332.76 220,-330.76 220,-314.76 298,-314.76 300,-316.76 300,-332.76"/>
<polyline fill="none" stroke="black" points="298,-330.76 220,-330.76 "/>
<polyline fill="none" stroke="black" points="298,-330.76 298,-314.76 "/>
<polyline fill="none" stroke="black" points="298,-330.76 300,-332.76 "/>
<text text-anchor="start" x="228" y="-321.56" font-family="Helvetica,sans-Serif" font-size="9.00">trace&#45;explorer</text>
</a>
</g>
</g>
<!-- vscode&#45;trace&#45;extension/src/extension.ts&#45;&gt;vscode&#45;trace&#45;extension/src/trace&#45;explorer/ -->
<g id="edge8" class="edge">
<title>vscode&#45;trace&#45;extension/src/extension.ts&#45;&gt;vscode&#45;trace&#45;extension/src/trace&#45;explorer/</title>
<g id="a_edge8"><a xlink:title="no&#45;circular">
<path fill="none" stroke="orange" stroke-width="2" d="M194.74,-288.82C202.55,-293.35 211.51,-298.58 220,-302.76 224.56,-305.01 229.55,-307.15 234.39,-309.2"/>
<polygon fill="orange" stroke="orange" stroke-width="2" points="240.82,-314.28 247.16,-314.74 242.49,-310.43 240.82,-314.28"/>
<polyline fill="none" stroke="orange" stroke-width="2" points="241.66,-312.35 238.9,-311.16 "/>
<ellipse fill="none" stroke="orange" stroke-width="2" cx="236.7" cy="-310.2" rx="2.4" ry="2.4"/>
</a>
</g>
<text text-anchor="middle" x="244.93" y="-305.77" font-family="Helvetica,sans-Serif" font-size="9.00" fill="orange">no&#45;circular</text>
</g>
<!-- vscode&#45;trace&#45;extension/src/trace&#45;viewer&#45;panel/ -->
<g id="node17" class="node">
<title>vscode&#45;trace&#45;extension/src/trace&#45;viewer&#45;panel/</title>
<g id="a_node17"><a xlink:href="vscode-trace-extension/src/trace-viewer-panel/" xlink:title="trace&#45;viewer&#45;panel">
<polygon fill="#ffffcc" stroke="black" points="123,-299.76 26,-299.76 24,-297.76 24,-281.76 121,-281.76 123,-283.76 123,-299.76"/>
<polyline fill="none" stroke="black" points="121,-297.76 24,-297.76 "/>
<polyline fill="none" stroke="black" points="121,-297.76 121,-281.76 "/>
<polyline fill="none" stroke="black" points="121,-297.76 123,-299.76 "/>
<text text-anchor="start" x="32" y="-288.56" font-family="Helvetica,sans-Serif" font-size="9.00">trace&#45;viewer&#45;panel</text>
</a>
</g>
</g>
<!-- vscode&#45;trace&#45;extension/src/extension.ts&#45;&gt;vscode&#45;trace&#45;extension/src/trace&#45;viewer&#45;panel/ -->
<g id="edge9" class="edge">
<title>vscode&#45;trace&#45;extension/src/extension.ts&#45;&gt;vscode&#45;trace&#45;extension/src/trace&#45;viewer&#45;panel/</title>
<g id="a_edge9"><a xlink:title="no&#45;circular">
<path fill="none" stroke="orange" stroke-width="2" d="M135.74,-288.09C135.62,-288.11 135.49,-288.13 135.36,-288.14"/>
<polygon fill="orange" stroke="orange" stroke-width="2" points="128.75,-286.86 123.06,-289.7 129.28,-291.03 128.75,-286.86"/>
<polyline fill="none" stroke="orange" stroke-width="2" points="129.02,-288.95 131.99,-288.57 "/>
<ellipse fill="none" stroke="orange" stroke-width="2" cx="134.37" cy="-288.27" rx="2.4" ry="2.4"/>
</a>
</g>
<text text-anchor="middle" x="159.88" y="-290.94" font-family="Helvetica,sans-Serif" font-size="9.00" fill="orange">no&#45;circular</text>
</g>
<!-- vscode&#45;trace&#45;extension/src/utils/ -->
<g id="node18" class="node">
<title>vscode&#45;trace&#45;extension/src/utils/</title>
<g id="a_node18"><a xlink:href="vscode-trace-extension/src/utils/" xlink:title="utils">
<polygon fill="#ffffcc" stroke="black" points="399.5,-288.76 347.5,-288.76 345.5,-286.76 345.5,-270.76 397.5,-270.76 399.5,-272.76 399.5,-288.76"/>
<polyline fill="none" stroke="black" points="397.5,-286.76 345.5,-286.76 "/>
<polyline fill="none" stroke="black" points="397.5,-286.76 397.5,-270.76 "/>
<polyline fill="none" stroke="black" points="397.5,-286.76 399.5,-288.76 "/>
<text text-anchor="start" x="363" y="-277.56" font-family="Helvetica,sans-Serif" font-size="9.00">utils</text>
</a>
</g>
</g>
<!-- vscode&#45;trace&#45;extension/src/extension.ts&#45;&gt;vscode&#45;trace&#45;extension/src/utils/ -->
<g id="edge10" class="edge">
<title>vscode&#45;trace&#45;extension/src/extension.ts&#45;&gt;vscode&#45;trace&#45;extension/src/utils/</title>
<path fill="none" stroke="#000000" stroke-width="2" stroke-opacity="0.200000" d="M207,-278.95C211.38,-278.87 215.79,-278.81 220,-278.76 255.55,-278.39 264.45,-278.52 300,-278.76 312.79,-278.85 326.87,-279.03 339.13,-279.22"/>
<polygon fill="#000000" fill-opacity="0.200000" stroke="#000000" stroke-width="2" stroke-opacity="0.200000" points="339.32,-281.32 345.35,-279.31 339.38,-277.12 339.32,-281.32"/>
</g>
<!-- vscode&#45;trace&#45;extension/src/external&#45;api/&#45;&gt;node_modules/@types -->
<g id="edge19" class="edge">
<title>vscode&#45;trace&#45;extension/src/external&#45;api/&#45;&gt;node_modules/@types</title>
<path fill="none" stroke="#000000" stroke-opacity="0.200000" d="M271.75,-284.7C280.77,-277.72 294.35,-268.64 308,-264.76 363.16,-249.12 382.61,-246.63 437,-264.76 469.89,-275.73 500.5,-303.57 516.78,-320.35"/>
<polygon fill="#000000" fill-opacity="0.200000" stroke="#000000" stroke-opacity="0.200000" points="515.33,-321.86 520.98,-324.76 518.37,-318.97 515.33,-321.86"/>
</g>
<!-- vscode&#45;trace&#45;extension/src/external&#45;api/&#45;&gt;node_modules/tsp&#45;typescript&#45;client -->
<g id="edge18" class="edge">
<title>vscode&#45;trace&#45;extension/src/external&#45;api/&#45;&gt;node_modules/tsp&#45;typescript&#45;client</title>
<g id="a_edge18"><a xlink:title="no&#45;non&#45;package&#45;json">
<path fill="none" stroke="red" d="M287.86,-302.84C323.47,-314.64 388.4,-335.3 445,-348.76 453.2,-350.71 461.9,-352.54 470.47,-354.2"/>
<polygon fill="red" stroke="red" points="470.1,-356.26 476.38,-355.32 470.88,-352.14 470.1,-356.26"/>
</a>
</g>
<text text-anchor="middle" x="428.98" y="-324.71" font-family="Helvetica,sans-Serif" font-size="9.00" fill="red">no&#45;non&#45;package&#45;json</text>
</g>
<!-- vscode&#45;trace&#45;extension/src/external&#45;api/&#45;&gt;vscode&#45;trace&#45;extension/src/extension.ts -->
<g id="edge15" class="edge">
<title>vscode&#45;trace&#45;extension/src/external&#45;api/&#45;&gt;vscode&#45;trace&#45;extension/src/extension.ts</title>
<g id="a_edge15"><a xlink:title="no&#45;circular">
<path fill="none" stroke="orange" stroke-width="2" d="M224.97,-292.66C221.85,-292.22 218.67,-291.74 215.5,-291.22"/>
<polygon fill="orange" stroke="orange" stroke-width="2" points="208.06,-287.77 201.78,-288.79 207.33,-291.91 208.06,-287.77"/>
<polyline fill="none" stroke="orange" stroke-width="2" points="207.69,-289.84 210.65,-290.36 "/>
<ellipse fill="none" stroke="orange" stroke-width="2" cx="213.01" cy="-290.78" rx="2.4" ry="2.4"/>
</a>
</g>
<text text-anchor="middle" x="191.07" y="-294.04" font-family="Helvetica,sans-Serif" font-size="9.00" fill="orange">no&#45;circular</text>
</g>
<!-- vscode&#45;trace&#45;extension/src/external&#45;api/&#45;&gt;vscode&#45;trace&#45;extension/src/trace&#45;viewer&#45;panel/ -->
<g id="edge16" class="edge">
<title>vscode&#45;trace&#45;extension/src/external&#45;api/&#45;&gt;vscode&#45;trace&#45;extension/src/trace&#45;viewer&#45;panel/</title>
<g id="a_edge16"><a xlink:title="no&#45;circular">
<path fill="none" stroke="orange" stroke-width="2" d="M224.88,-294.51C218.92,-294.62 212.78,-294.71 207,-294.76 179.14,-295.03 169.72,-295.63 137.36,-294.68"/>
<polygon fill="orange" stroke="orange" stroke-width="2" points="129.23,-292.32 123.16,-294.22 129.09,-296.52 129.23,-292.32"/>
<polyline fill="none" stroke="orange" stroke-width="2" points="129.16,-294.42 132.16,-294.51 "/>
<ellipse fill="none" stroke="orange" stroke-width="2" cx="134.56" cy="-294.59" rx="2.4" ry="2.4"/>
</a>
</g>
<text text-anchor="middle" x="149.83" y="-297.97" font-family="Helvetica,sans-Serif" font-size="9.00" fill="orange">no&#45;circular</text>
</g>
<!-- vscode&#45;trace&#45;extension/src/external&#45;api/&#45;&gt;vscode&#45;trace&#45;extension/src/utils/ -->
<g id="edge17" class="edge">
<title>vscode&#45;trace&#45;extension/src/external&#45;api/&#45;&gt;vscode&#45;trace&#45;extension/src/utils/</title>
<path fill="none" stroke="#000000" stroke-width="2" stroke-opacity="0.200000" d="M295.06,-289.45C309.13,-287.67 325.37,-285.61 339.26,-283.85"/>
<polygon fill="#000000" fill-opacity="0.200000" stroke="#000000" stroke-width="2" stroke-opacity="0.200000" points="339.76,-285.9 345.45,-283.06 339.24,-281.74 339.76,-285.9"/>
</g>
<!-- vscode&#45;trace&#45;extension/src/trace&#45;explorer/&#45;&gt;fs -->
<g id="edge32" class="edge">
<title>vscode&#45;trace&#45;extension/src/trace&#45;explorer/&#45;&gt;fs</title>
<path fill="none" stroke="#000000" stroke-dasharray="5,2" stroke-opacity="0.200000" d="M261.04,-333.05C261.66,-359.18 267.12,-433.99 308,-473.76 316.38,-481.92 328.18,-486.44 339.33,-488.92"/>
<polygon fill="#000000" fill-opacity="0.200000" stroke="#000000" stroke-opacity="0.200000" points="339.15,-491.02 345.44,-490.09 339.95,-486.89 339.15,-491.02"/>
</g>
<!-- vscode&#45;trace&#45;extension/src/trace&#45;explorer/&#45;&gt;node_modules/@types -->
<g id="edge24" class="edge">
<title>vscode&#45;trace&#45;extension/src/trace&#45;explorer/&#45;&gt;node_modules/@types</title>
<path fill="none" stroke="#000000" stroke-opacity="0.200000" d="M300.18,-322.55C335.87,-321.74 390.01,-321.22 437,-323.76 456.86,-324.84 479.03,-327.21 496.62,-329.38"/>
<polygon fill="#000000" fill-opacity="0.200000" stroke="#000000" stroke-opacity="0.200000" points="496.67,-331.5 502.89,-330.16 497.2,-327.33 496.67,-331.5"/>
</g>
<!-- vscode&#45;trace&#45;extension/src/trace&#45;explorer/&#45;&gt;node_modules/json&#45;bigint -->
<g id="edge26" class="edge">
<title>vscode&#45;trace&#45;extension/src/trace&#45;explorer/&#45;&gt;node_modules/json&#45;bigint</title>
<path fill="none" stroke="#000000" stroke-opacity="0.200000" d="M263.37,-332.89C268.36,-350.1 281.74,-387.12 308,-403.76 364.21,-439.39 445.19,-436.04 491.92,-430.1"/>
<polygon fill="#000000" fill-opacity="0.200000" stroke="#000000" stroke-opacity="0.200000" points="492.33,-432.16 498,-429.29 491.77,-428 492.33,-432.16"/>
</g>
<!-- vscode&#45;trace&#45;extension/src/trace&#45;explorer/&#45;&gt;node_modules/traceviewer&#45;base -->
<g id="edge27" class="edge">
<title>vscode&#45;trace&#45;extension/src/trace&#45;explorer/&#45;&gt;node_modules/traceviewer&#45;base</title>
<path fill="none" stroke="#000000" stroke-opacity="0.200000" d="M265.2,-332.98C271.98,-346.66 286.79,-371.89 308,-382.76 360.99,-409.95 430.86,-408.24 477.72,-402.66"/>
<polygon fill="#000000" fill-opacity="0.200000" stroke="#000000" stroke-opacity="0.200000" points="478.2,-404.72 483.89,-401.89 477.68,-400.55 478.2,-404.72"/>
</g>
<!-- vscode&#45;trace&#45;extension/src/trace&#45;explorer/&#45;&gt;node_modules/traceviewer&#45;react&#45;components -->
<g id="edge31" class="edge">
<title>vscode&#45;trace&#45;extension/src/trace&#45;explorer/&#45;&gt;node_modules/traceviewer&#45;react&#45;components</title>
<path fill="none" stroke="#000000" stroke-opacity="0.200000" d="M262.09,-332.94C265.1,-353.85 275.59,-405.07 308,-428.76 349.17,-458.86 406.68,-464.56 452.71,-463.02"/>
<polygon fill="#000000" fill-opacity="0.200000" stroke="#000000" stroke-opacity="0.200000" points="452.93,-465.11 458.84,-462.77 452.76,-460.92 452.93,-465.11"/>
</g>
<!-- vscode&#45;trace&#45;extension/src/trace&#45;explorer/&#45;&gt;node_modules/tsp&#45;typescript&#45;client -->
<g id="edge23" class="edge">
<title>vscode&#45;trace&#45;extension/src/trace&#45;explorer/&#45;&gt;node_modules/tsp&#45;typescript&#45;client</title>
<g id="a_edge23"><a xlink:title="no&#45;non&#45;package&#45;json">
<path fill="none" stroke="red" d="M266.99,-332.98C274.85,-344.13 289.82,-362.35 308,-369.76 336.27,-381.3 414.78,-376.18 470.15,-370.65"/>
<polygon fill="red" stroke="red" points="470.69,-372.7 476.44,-370.01 470.26,-368.53 470.69,-372.7"/>
</a>
</g>
<text text-anchor="middle" x="324.43" y="-369.49" font-family="Helvetica,sans-Serif" font-size="9.00" fill="red">no&#45;non&#45;package&#45;json</text>
</g>
<!-- vscode&#45;trace&#45;extension/src/trace&#45;explorer/&#45;&gt;path -->
<g id="edge22" class="edge">
<title>vscode&#45;trace&#45;extension/src/trace&#45;explorer/&#45;&gt;path</title>
<path fill="none" stroke="#000000" stroke-dasharray="5,2" stroke-opacity="0.200000" d="M293.62,-314.63C296.03,-312.98 298.21,-311.05 300,-308.76 317.42,-286.55 290.21,-267.68 308,-245.76 315.7,-236.28 327.73,-230.87 339.26,-227.79"/>
<polygon fill="#000000" fill-opacity="0.200000" stroke="#000000" stroke-opacity="0.200000" points="339.86,-229.81 345.21,-226.39 338.89,-225.72 339.86,-229.81"/>
</g>
<!-- vscode&#45;trace&#45;extension/src/trace&#45;explorer/&#45;&gt;vscode&#45;trace&#45;common/lib/messages/ -->
<g id="edge28" class="edge">
<title>vscode&#45;trace&#45;extension/src/trace&#45;explorer/&#45;&gt;vscode&#45;trace&#45;common/lib/messages/</title>
<path fill="none" stroke="#000000" stroke-width="2" stroke-opacity="0.200000" d="M294.19,-314.54C296.41,-312.91 298.4,-311.01 300,-308.76 313.46,-289.95 293.3,-118.62 308,-100.76 314.8,-92.5 325.23,-88.3 335.68,-86.28"/>
<polygon fill="#000000" fill-opacity="0.200000" stroke="#000000" stroke-width="2" stroke-opacity="0.200000" points="336.2,-88.32 341.81,-85.33 335.56,-84.17 336.2,-88.32"/>
</g>
<!-- vscode&#45;trace&#45;extension/src/trace&#45;explorer/&#45;&gt;vscode&#45;trace&#45;common/lib/signals/ -->
<g id="edge29" class="edge">
<title>vscode&#45;trace&#45;extension/src/trace&#45;explorer/&#45;&gt;vscode&#45;trace&#45;common/lib/signals/</title>
<path fill="none" stroke="#000000" stroke-width="2" stroke-opacity="0.200000" d="M293.73,-314.71C296.12,-313.05 298.26,-311.09 300,-308.76 313.34,-290.91 298.61,-228.99 308,-208.76 317.81,-187.63 337.93,-169.63 352.91,-158.35"/>
<polygon fill="#000000" fill-opacity="0.200000" stroke="#000000" stroke-width="2" stroke-opacity="0.200000" points="354.17,-160.03 357.77,-154.78 351.69,-156.64 354.17,-160.03"/>
</g>
<!-- vscode&#45;trace&#45;extension/src/trace&#45;explorer/&#45;&gt;vscode&#45;trace&#45;extension/src/extension.ts -->
<g id="edge30" class="edge">
<title>vscode&#45;trace&#45;extension/src/trace&#45;explorer/&#45;&gt;vscode&#45;trace&#45;extension/src/extension.ts</title>
<g id="a_edge30"><a xlink:title="no&#45;circular">
<path fill="none" stroke="orange" stroke-width="2" d="M219.65,-314.59C209.81,-309.72 199.39,-303.47 190.86,-297.51"/>
<polygon fill="orange" stroke="orange" stroke-width="2" points="185.71,-290.89 179.67,-288.89 183.14,-294.22 185.71,-290.89"/>
<polyline fill="none" stroke="orange" stroke-width="2" points="184.42,-292.55 186.8,-294.38 "/>
<ellipse fill="none" stroke="orange" stroke-width="2" cx="188.7" cy="-295.85" rx="2.4" ry="2.4"/>
</a>
</g>
<text text-anchor="middle" x="174.39" y="-305.65" font-family="Helvetica,sans-Serif" font-size="9.00" fill="orange">no&#45;circular</text>
</g>
<!-- vscode&#45;trace&#45;extension/src/trace&#45;explorer/&#45;&gt;vscode&#45;trace&#45;extension/src/trace&#45;viewer&#45;panel/ -->
<g id="edge21" class="edge">
<title>vscode&#45;trace&#45;extension/src/trace&#45;explorer/&#45;&gt;vscode&#45;trace&#45;extension/src/trace&#45;viewer&#45;panel/</title>
<g id="a_edge21"><a xlink:title="no&#45;circular">
<path fill="none" stroke="orange" stroke-width="2" d="M219.74,-316.74C195.8,-312.46 164.64,-306.89 137.33,-302"/>
<polygon fill="orange" stroke="orange" stroke-width="2" points="129.73,-298.51 123.46,-299.52 128.99,-302.64 129.73,-298.51"/>
<polyline fill="none" stroke="orange" stroke-width="2" points="129.36,-300.58 132.32,-301.11 "/>
<ellipse fill="none" stroke="orange" stroke-width="2" cx="134.68" cy="-301.53" rx="2.4" ry="2.4"/>
</a>
</g>
<text text-anchor="middle" x="146.94" y="-310.9" font-family="Helvetica,sans-Serif" font-size="9.00" fill="orange">no&#45;circular</text>
</g>
<!-- vscode&#45;trace&#45;extension/src/trace&#45;explorer/&#45;&gt;vscode&#45;trace&#45;extension/src/utils/ -->
<g id="edge25" class="edge">
<title>vscode&#45;trace&#45;extension/src/trace&#45;explorer/&#45;&gt;vscode&#45;trace&#45;extension/src/utils/</title>
<path fill="none" stroke="#000000" stroke-width="2" stroke-opacity="0.200000" d="M290.13,-314.74C293.62,-313.04 297.01,-311.06 300,-308.76 304.8,-305.08 303.04,-301.22 308,-297.76 317.19,-291.35 328.63,-287.21 339.25,-284.54"/>
<polygon fill="#000000" fill-opacity="0.200000" stroke="#000000" stroke-width="2" stroke-opacity="0.200000" points="340.01,-286.52 345.39,-283.14 339.07,-282.43 340.01,-286.52"/>
</g>
<!-- vscode&#45;trace&#45;extension/src/trace&#45;viewer&#45;panel/&#45;&gt;fs -->
<g id="edge36" class="edge">
<title>vscode&#45;trace&#45;extension/src/trace&#45;viewer&#45;panel/&#45;&gt;fs</title>
<path fill="none" stroke="#000000" stroke-dasharray="5,2" stroke-opacity="0.200000" d="M93.47,-299.87C103.33,-305.38 114.96,-313.18 123,-322.76 132.34,-333.9 126.42,-341.84 136,-352.76 194.76,-419.75 231.02,-410.9 308,-455.76 321.86,-463.84 337.55,-472.74 349.86,-479.66"/>
<polygon fill="#000000" fill-opacity="0.200000" stroke="#000000" stroke-opacity="0.200000" points="349,-481.59 355.26,-482.7 351.05,-477.93 349,-481.59"/>
</g>
<!-- vscode&#45;trace&#45;extension/src/trace&#45;viewer&#45;panel/&#45;&gt;node_modules/@types -->
<g id="edge41" class="edge">
<title>vscode&#45;trace&#45;extension/src/trace&#45;viewer&#45;panel/&#45;&gt;node_modules/@types</title>
<path fill="none" stroke="#000000" stroke-opacity="0.200000" d="M76.12,-281.48C80.96,-255.98 97.5,-183.75 136,-138.76 227.93,-31.34 323.22,48.18 437,-35.76 484.52,-70.83 517.85,-262.5 526.68,-318.43"/>
<polygon fill="#000000" fill-opacity="0.200000" stroke="#000000" stroke-opacity="0.200000" points="524.63,-318.96 527.63,-324.56 528.78,-318.31 524.63,-318.96"/>
</g>
<!-- vscode&#45;trace&#45;extension/src/trace&#45;viewer&#45;panel/&#45;&gt;node_modules/json&#45;bigint -->
<g id="edge37" class="edge">
<title>vscode&#45;trace&#45;extension/src/trace&#45;viewer&#45;panel/&#45;&gt;node_modules/json&#45;bigint</title>
<path fill="none" stroke="#000000" stroke-opacity="0.200000" d="M96.57,-299.83C106.37,-305.04 117.01,-312.59 123,-322.76 161.22,-387.68 97.93,-426.76 136,-491.76 158.67,-530.48 178.97,-529.61 220,-547.76 308.65,-586.98 366.4,-636.19 437,-569.76 458.24,-549.78 425.6,-460.55 445,-438.76 456.49,-425.86 474.96,-421.6 491.65,-420.79"/>
<polygon fill="#000000" fill-opacity="0.200000" stroke="#000000" stroke-opacity="0.200000" points="491.76,-422.89 497.71,-420.63 491.66,-418.69 491.76,-422.89"/>
</g>
<!-- vscode&#45;trace&#45;extension/src/trace&#45;viewer&#45;panel/&#45;&gt;node_modules/traceviewer&#45;base -->
<g id="edge39" class="edge">
<title>vscode&#45;trace&#45;extension/src/trace&#45;viewer&#45;panel/&#45;&gt;node_modules/traceviewer&#45;base</title>
<path fill="none" stroke="#000000" stroke-opacity="0.200000" d="M96.19,-299.77C106.02,-305.01 116.81,-312.6 123,-322.76 151.15,-368.95 110.97,-395.82 136,-443.76 177.56,-523.36 219.65,-533.74 308,-549.76 364.41,-559.99 395.33,-589.14 437,-549.76 459.81,-528.21 424.18,-432.25 445,-408.76 453.36,-399.33 465.44,-394.51 477.85,-392.28"/>
<polygon fill="#000000" fill-opacity="0.200000" stroke="#000000" stroke-opacity="0.200000" points="478.32,-394.34 483.95,-391.39 477.71,-390.18 478.32,-394.34"/>
</g>
<!-- vscode&#45;trace&#45;extension/src/trace&#45;viewer&#45;panel/&#45;&gt;node_modules/tsp&#45;typescript&#45;client -->
<g id="edge40" class="edge">
<title>vscode&#45;trace&#45;extension/src/trace&#45;viewer&#45;panel/&#45;&gt;node_modules/tsp&#45;typescript&#45;client</title>
<g id="a_edge40"><a xlink:title="no&#45;non&#45;package&#45;json">
<path fill="none" stroke="red" d="M95.82,-300.01C105.56,-305.3 116.38,-312.87 123,-322.76 139.87,-347.98 120.37,-363.77 136,-389.76 186.65,-474 215.33,-496 308,-528.76 362.05,-547.88 395.39,-568.21 437,-528.76 449.11,-517.28 433.95,-391.27 445,-378.76 451.66,-371.23 460.7,-366.63 470.38,-363.95"/>
<polygon fill="red" stroke="red" points="471.12,-365.93 476.48,-362.52 470.16,-361.84 471.12,-365.93"/>
</a>
</g>
<text text-anchor="middle" x="82.46" y="-358.77" font-family="Helvetica,sans-Serif" font-size="9.00" fill="red">no&#45;non&#45;package&#45;json</text>
</g>
<!-- vscode&#45;trace&#45;extension/src/trace&#45;viewer&#45;panel/&#45;&gt;path -->
<g id="edge38" class="edge">
<title>vscode&#45;trace&#45;extension/src/trace&#45;viewer&#45;panel/&#45;&gt;path</title>
<path fill="none" stroke="#000000" stroke-dasharray="5,2" stroke-opacity="0.200000" d="M86.51,-281.76C98.42,-273.33 117.51,-261.1 136,-254.76 205.67,-230.88 292.75,-225.23 339.04,-224"/>
<polygon fill="#000000" fill-opacity="0.200000" stroke="#000000" stroke-opacity="0.200000" points="339.35,-226.1 345.3,-223.86 339.25,-221.9 339.35,-226.1"/>
</g>
<!-- vscode&#45;trace&#45;extension/src/trace&#45;viewer&#45;panel/&#45;&gt;vscode&#45;trace&#45;common/lib/messages/ -->
<g id="edge42" class="edge">
<title>vscode&#45;trace&#45;extension/src/trace&#45;viewer&#45;panel/&#45;&gt;vscode&#45;trace&#45;common/lib/messages/</title>
<path fill="none" stroke="#000000" stroke-width="2" stroke-opacity="0.200000" d="M78.5,-281.49C86.87,-263.01 107.77,-221.09 136,-194.76 199.71,-135.34 226.66,-131.95 308,-100.76 316.85,-97.37 326.7,-94.59 335.95,-92.39"/>
<polygon fill="#000000" fill-opacity="0.200000" stroke="#000000" stroke-width="2" stroke-opacity="0.200000" points="336.54,-94.41 341.92,-91.03 335.6,-90.32 336.54,-94.41"/>
</g>
<!-- vscode&#45;trace&#45;extension/src/trace&#45;viewer&#45;panel/&#45;&gt;vscode&#45;trace&#45;common/lib/signals/ -->
<g id="edge43" class="edge">
<title>vscode&#45;trace&#45;extension/src/trace&#45;viewer&#45;panel/&#45;&gt;vscode&#45;trace&#45;common/lib/signals/</title>
<path fill="none" stroke="#000000" stroke-width="2" stroke-opacity="0.200000" d="M82.37,-281.48C93.3,-269.11 114.19,-247.21 136,-233.76 202.84,-192.55 292.06,-165.8 339.18,-153.54"/>
<polygon fill="#000000" fill-opacity="0.200000" stroke="#000000" stroke-width="2" stroke-opacity="0.200000" points="339.97,-155.5 345.26,-151.98 338.93,-151.44 339.97,-155.5"/>
</g>
<!-- vscode&#45;trace&#45;extension/src/trace&#45;viewer&#45;panel/&#45;&gt;vscode&#45;trace&#45;extension/src/common/ -->
<g id="edge33" class="edge">
<title>vscode&#45;trace&#45;extension/src/trace&#45;viewer&#45;panel/&#45;&gt;vscode&#45;trace&#45;extension/src/common/</title>
<path fill="none" stroke="#000000" stroke-width="2" stroke-opacity="0.200000" d="M93.01,-299.83C108.28,-307.3 130.06,-317.97 146.64,-326.08"/>
<polygon fill="#000000" fill-opacity="0.200000" stroke="#000000" stroke-width="2" stroke-opacity="0.200000" points="145.73,-327.98 152.05,-328.73 147.58,-324.21 145.73,-327.98"/>
</g>
<!-- vscode&#45;trace&#45;extension/src/trace&#45;viewer&#45;panel/&#45;&gt;vscode&#45;trace&#45;extension/src/extension.ts -->
<g id="edge34" class="edge">
<title>vscode&#45;trace&#45;extension/src/trace&#45;viewer&#45;panel/&#45;&gt;vscode&#45;trace&#45;extension/src/extension.ts</title>
<g id="a_edge34"><a xlink:title="no&#45;circular">
<path fill="none" stroke="orange" stroke-width="2" d="M114.38,-281.75C116.82,-281.44 119.3,-281.14 121.77,-280.85"/>
<polygon fill="orange" stroke="orange" stroke-width="2" points="130.04,-282.1 135.79,-279.4 129.61,-277.93 130.04,-282.1"/>
<polyline fill="none" stroke="orange" stroke-width="2" points="129.82,-280.02 126.84,-280.32 "/>
<ellipse fill="none" stroke="orange" stroke-width="2" cx="124.45" cy="-280.57" rx="2.4" ry="2.4"/>
</a>
</g>
<text text-anchor="middle" x="97.21" y="-273.66" font-family="Helvetica,sans-Serif" font-size="9.00" fill="orange">no&#45;circular</text>
</g>
<!-- vscode&#45;trace&#45;extension/src/trace&#45;viewer&#45;panel/&#45;&gt;vscode&#45;trace&#45;extension/src/utils/ -->
<g id="edge35" class="edge">
<title>vscode&#45;trace&#45;extension/src/trace&#45;viewer&#45;panel/&#45;&gt;vscode&#45;trace&#45;extension/src/utils/</title>
<path fill="none" stroke="#000000" stroke-width="2" stroke-opacity="0.200000" d="M90.88,-281.7C102.95,-275.57 119.98,-268.01 136,-264.76 207.67,-250.24 293.88,-263.26 339.51,-272.48"/>
<polygon fill="#000000" fill-opacity="0.200000" stroke="#000000" stroke-width="2" stroke-opacity="0.200000" points="339.11,-274.54 345.41,-273.69 339.96,-270.42 339.11,-274.54"/>
</g>
<!-- vscode&#45;trace&#45;extension/src/utils/&#45;&gt;node_modules/@types -->
<g id="edge44" class="edge">
<title>vscode&#45;trace&#45;extension/src/utils/&#45;&gt;node_modules/@types</title>
<path fill="none" stroke="#000000" stroke-opacity="0.200000" d="M399.63,-286.56C411.16,-289.71 424.84,-293.67 437,-297.76 459.05,-305.19 483.57,-314.85 501.75,-322.3"/>
<polygon fill="#000000" fill-opacity="0.200000" stroke="#000000" stroke-opacity="0.200000" points="501.31,-324.39 507.65,-324.73 502.91,-320.51 501.31,-324.39"/>
</g>
<!-- vscode&#45;trace&#45;extension/src/utils/&#45;&gt;node_modules/tsp&#45;typescript&#45;client -->
<g id="edge45" class="edge">
<title>vscode&#45;trace&#45;extension/src/utils/&#45;&gt;node_modules/tsp&#45;typescript&#45;client</title>
<g id="a_edge45"><a xlink:title="no&#45;non&#45;package&#45;json">
<path fill="none" stroke="red" d="M380.2,-289.15C391.63,-304.36 416.42,-334.17 445,-348.76 452.83,-352.76 461.53,-355.71 470.3,-357.88"/>
<polygon fill="red" stroke="red" points="470.04,-359.98 476.36,-359.27 470.98,-355.89 470.04,-359.98"/>
</a>
</g>
<text text-anchor="middle" x="373.9" y="-335.81" font-family="Helvetica,sans-Serif" font-size="9.00" fill="red">no&#45;non&#45;package&#45;json</text>
</g>
<!-- vscode&#45;trace&#45;extension/src/test/ -->
<g id="node19" class="node">
<title>vscode&#45;trace&#45;extension/src/test/</title>
<g id="a_node19"><a xlink:href="vscode-trace-extension/src/test/" xlink:title="test">
<polygon fill="#ffffcc" stroke="black" points="100.5,-346.76 48.5,-346.76 46.5,-344.76 46.5,-328.76 98.5,-328.76 100.5,-330.76 100.5,-346.76"/>
<polyline fill="none" stroke="black" points="98.5,-344.76 46.5,-344.76 "/>
<polyline fill="none" stroke="black" points="98.5,-344.76 98.5,-328.76 "/>
<polyline fill="none" stroke="black" points="98.5,-344.76 100.5,-346.76 "/>
<text text-anchor="start" x="64.5" y="-335.56" font-family="Helvetica,sans-Serif" font-size="9.00">test</text>
</a>
</g>
</g>
<!-- vscode&#45;trace&#45;extension/src/test/&#45;&gt;node_modules/@playwright -->
<g id="edge20" class="edge">
<title>vscode&#45;trace&#45;extension/src/test/&#45;&gt;node_modules/@playwright</title>
<path fill="none" stroke="#000000" stroke-opacity="0.200000" d="M75.22,-347.13C77.93,-376.7 89.86,-469.55 136,-526.76 163.13,-560.41 179.79,-559.9 220,-575.76 310.1,-611.31 349.44,-637.15 437,-595.76 479.97,-575.46 509.61,-524.16 522.2,-498.64"/>
<polygon fill="#000000" fill-opacity="0.200000" stroke="#000000" stroke-opacity="0.200000" points="524.19,-499.35 524.9,-493.03 520.41,-497.53 524.19,-499.35"/>
</g>
</g>
</svg>
