<?xml version="1.0" encoding="UTF-8" standalone="no"?>
<!DOCTYPE svg PUBLIC "-//W3C//DTD SVG 1.1//EN"
 "http://www.w3.org/Graphics/SVG/1.1/DTD/svg11.dtd">
<!-- Generated by graphviz version 2.43.0 (0)
 -->
<!-- Title: dependency&#45;cruiser output Pages: 1 -->
<svg width="467pt" height="280pt"
 viewBox="0.00 0.00 467.00 280.00" xmlns="http://www.w3.org/2000/svg" xmlns:xlink="http://www.w3.org/1999/xlink">
<g id="graph0" class="graph" transform="scale(1 1) rotate(0) translate(4 276)">
<title>dependency&#45;cruiser output</title>
<polygon fill="white" stroke="transparent" points="-4,4 -4,-276 463,-276 463,4 -4,4"/>
<g id="clust1" class="cluster">
<title>cluster_node_modules</title>
<path fill="#ffffff" stroke="black" stroke-width="2" d="M293,-42C293,-42 439,-42 439,-42 445,-42 451,-48 451,-54 451,-54 451,-232 451,-232 451,-238 445,-244 439,-244 439,-244 293,-244 293,-244 287,-244 281,-238 281,-232 281,-232 281,-54 281,-54 281,-48 287,-42 293,-42"/>
<text text-anchor="middle" x="366" y="-232.8" font-family="Helvetica,sans-Serif" font-weight="bold" font-size="9.00">node_modules</text>
</g>
<g id="clust2" class="cluster">
<title>cluster_vscode&#45;trace&#45;common</title>
<path fill="#ffffff" stroke="black" stroke-width="2" d="M156,-8C156,-8 261,-8 261,-8 267,-8 273,-14 273,-20 273,-20 273,-48 273,-48 273,-54 267,-60 261,-60 261,-60 156,-60 156,-60 150,-60 144,-54 144,-48 144,-48 144,-20 144,-20 144,-14 150,-8 156,-8"/>
<text text-anchor="middle" x="208.5" y="-48.8" font-family="Helvetica,sans-Serif" font-weight="bold" font-size="9.00">vscode&#45;trace&#45;common</text>
</g>
<g id="clust3" class="cluster">
<title>cluster_vscode&#45;trace&#45;extension</title>
<path fill="#ffffff" stroke="black" stroke-width="2" d="M12,-136C12,-136 124,-136 124,-136 130,-136 136,-142 136,-148 136,-148 136,-176 136,-176 136,-182 130,-188 124,-188 124,-188 12,-188 12,-188 6,-188 0,-182 0,-176 0,-176 0,-148 0,-148 0,-142 6,-136 12,-136"/>
<text text-anchor="middle" x="68" y="-176.8" font-family="Helvetica,sans-Serif" font-weight="bold" font-size="9.00">vscode&#45;trace&#45;extension</text>
</g>
<!-- fs -->
<g id="node1" class="node">
<title>fs</title>
<g id="a_node1"><a xlink:href="https://nodejs.org/api/fs.html" xlink:title="fs">
<path fill="#ffffcc" stroke="grey" d="M229,-242C229,-242 187,-242 187,-242 184,-242 181,-239 181,-236 181,-236 181,-230 181,-230 181,-227 184,-224 187,-224 187,-224 229,-224 229,-224 232,-224 235,-227 235,-230 235,-230 235,-236 235,-236 235,-239 232,-242 229,-242"/>
<text text-anchor="middle" x="208" y="-230.8" font-family="Helvetica,sans-Serif" font-size="9.00" fill="grey">fs</text>
</a>
</g>
</g>
<!-- node_modules/@playwright -->
<g id="node2" class="node">
<title>node_modules/@playwright</title>
<g id="a_node2"><a xlink:href="https://www.npmjs.com/package/" xlink:title="@playwright">
<polygon fill="#c40b0a" fill-opacity="0.101961" stroke="black" points="403,-218 331,-218 329,-216 329,-200 401,-200 403,-202 403,-218"/>
<polyline fill="none" stroke="black" points="401,-216 329,-216 "/>
<polyline fill="none" stroke="black" points="401,-216 401,-200 "/>
<polyline fill="none" stroke="black" points="401,-216 403,-218 "/>
<text text-anchor="start" x="337" y="-206.8" font-family="Helvetica,sans-Serif" font-size="9.00" fill="#c40b0a">@playwright</text>
</a>
</g>
</g>
<!-- node_modules/@types -->
<g id="node3" class="node">
<title>node_modules/@types</title>
<g id="a_node3"><a xlink:href="https://www.npmjs.com/package/" xlink:title="@types">
<polygon fill="#c40b0a" fill-opacity="0.101961" stroke="black" points="393,-188 341,-188 339,-186 339,-170 391,-170 393,-172 393,-188"/>
<polyline fill="none" stroke="black" points="391,-186 339,-186 "/>
<polyline fill="none" stroke="black" points="391,-186 391,-170 "/>
<polyline fill="none" stroke="black" points="391,-186 393,-188 "/>
<text text-anchor="start" x="349" y="-176.8" font-family="Helvetica,sans-Serif" font-size="9.00" fill="#c40b0a">@types</text>
</a>
</g>
</g>
<!-- node_modules/json&#45;bigint -->
<g id="node4" class="node">
<title>node_modules/json&#45;bigint</title>
<g id="a_node4"><a xlink:href="https://www.npmjs.com/package/json-bigint" xlink:title="json&#45;bigint">
<polygon fill="#c40b0a" fill-opacity="0.101961" stroke="black" points="398,-128 336,-128 334,-126 334,-110 396,-110 398,-112 398,-128"/>
<polyline fill="none" stroke="black" points="396,-126 334,-126 "/>
<polyline fill="none" stroke="black" points="396,-126 396,-110 "/>
<polyline fill="none" stroke="black" points="396,-126 398,-128 "/>
<text text-anchor="start" x="342" y="-116.8" font-family="Helvetica,sans-Serif" font-size="9.00" fill="#c40b0a">json&#45;bigint</text>
</a>
</g>
</g>
<!-- node_modules/traceviewer&#45;base -->
<g id="node5" class="node">
<title>node_modules/traceviewer&#45;base</title>
<g id="a_node5"><a xlink:href="https://www.npmjs.com/package/traceviewer-base" xlink:title="traceviewer&#45;base">
<polygon fill="#c40b0a" fill-opacity="0.101961" stroke="black" points="412,-98 322,-98 320,-96 320,-80 410,-80 412,-82 412,-98"/>
<polyline fill="none" stroke="black" points="410,-96 320,-96 "/>
<polyline fill="none" stroke="black" points="410,-96 410,-80 "/>
<polyline fill="none" stroke="black" points="410,-96 412,-98 "/>
<text text-anchor="start" x="328" y="-86.8" font-family="Helvetica,sans-Serif" font-size="9.00" fill="#c40b0a">traceviewer&#45;base</text>
</a>
</g>
</g>
<!-- node_modules/traceviewer&#45;react&#45;components -->
<g id="node6" class="node">
<title>node_modules/traceviewer&#45;react&#45;components</title>
<g id="a_node6"><a xlink:href="https://www.npmjs.com/package/traceviewer-react-components" xlink:title="traceviewer&#45;react&#45;components">
<polygon fill="#c40b0a" fill-opacity="0.101961" stroke="black" points="443,-158 291,-158 289,-156 289,-140 441,-140 443,-142 443,-158"/>
<polyline fill="none" stroke="black" points="441,-156 289,-156 "/>
<polyline fill="none" stroke="black" points="441,-156 441,-140 "/>
<polyline fill="none" stroke="black" points="441,-156 443,-158 "/>
<text text-anchor="start" x="297" y="-146.8" font-family="Helvetica,sans-Serif" font-size="9.00" fill="#c40b0a">traceviewer&#45;react&#45;components</text>
</a>
</g>
</g>
<!-- node_modules/tsp&#45;typescript&#45;client -->
<g id="node7" class="node">
<title>node_modules/tsp&#45;typescript&#45;client</title>
<g id="a_node7"><a xlink:href="https://www.npmjs.com/package/tsp-typescript-client" xlink:title="tsp&#45;typescript&#45;client">
<polygon fill="#c40b0a" fill-opacity="0.101961" stroke="black" points="419.5,-68 314.5,-68 312.5,-66 312.5,-50 417.5,-50 419.5,-52 419.5,-68"/>
<polyline fill="none" stroke="black" points="417.5,-66 312.5,-66 "/>
<polyline fill="none" stroke="black" points="417.5,-66 417.5,-50 "/>
<polyline fill="none" stroke="black" points="417.5,-66 419.5,-68 "/>
<text text-anchor="start" x="320.5" y="-56.8" font-family="Helvetica,sans-Serif" font-size="9.00" fill="#c40b0a">tsp&#45;typescript&#45;client</text>
</a>
</g>
</g>
<!-- path -->
<g id="node8" class="node">
<title>path</title>
<g id="a_node8"><a xlink:href="https://nodejs.org/api/path.html" xlink:title="path">
<path fill="#ffffcc" stroke="grey" d="M229,-272C229,-272 187,-272 187,-272 184,-272 181,-269 181,-266 181,-266 181,-260 181,-260 181,-257 184,-254 187,-254 187,-254 229,-254 229,-254 232,-254 235,-257 235,-260 235,-260 235,-266 235,-266 235,-269 232,-272 229,-272"/>
<text text-anchor="middle" x="208" y="-260.8" font-family="Helvetica,sans-Serif" font-size="9.00" fill="grey">path</text>
</a>
</g>
</g>
<!-- vscode&#45;trace&#45;common/lib/ -->
<g id="node9" class="node">
<title>vscode&#45;trace&#45;common/lib/</title>
<g id="a_node9"><a xlink:href="vscode-trace-common/lib/" xlink:title="lib">
<polygon fill="#ffffcc" stroke="black" points="235,-34 183,-34 181,-32 181,-16 233,-16 235,-18 235,-34"/>
<polyline fill="none" stroke="black" points="233,-32 181,-32 "/>
<polyline fill="none" stroke="black" points="233,-32 233,-16 "/>
<polyline fill="none" stroke="black" points="233,-32 235,-34 "/>
<text text-anchor="start" x="202.5" y="-22.8" font-family="Helvetica,sans-Serif" font-size="9.00">lib</text>
</a>
</g>
</g>
<!-- vscode&#45;trace&#45;common/lib/&#45;&gt;node_modules/json&#45;bigint -->
<g id="edge1" class="edge">
<title>vscode&#45;trace&#45;common/lib/&#45;&gt;node_modules/json&#45;bigint</title>
<path fill="none" stroke="#000000" stroke-opacity="0.200000" d="M214.4,-34.12C224.9,-50.96 249.8,-86.79 281,-104 295.07,-111.77 312.31,-115.64 327.49,-117.53"/>
<polygon fill="#000000" fill-opacity="0.200000" stroke="#000000" stroke-opacity="0.200000" points="327.67,-119.66 333.86,-118.23 328.12,-115.49 327.67,-119.66"/>
</g>
<!-- vscode&#45;trace&#45;common/lib/&#45;&gt;node_modules/traceviewer&#45;base -->
<g id="edge2" class="edge">
<title>vscode&#45;trace&#45;common/lib/&#45;&gt;node_modules/traceviewer&#45;base</title>
<path fill="none" stroke="#000000" stroke-opacity="0.200000" d="M219.39,-34.19C232.69,-45.44 256.92,-64.18 281,-74 291.3,-78.2 302.79,-81.23 313.88,-83.41"/>
<polygon fill="#000000" fill-opacity="0.200000" stroke="#000000" stroke-opacity="0.200000" points="313.7,-85.51 319.99,-84.53 314.47,-81.38 313.7,-85.51"/>
</g>
<!-- vscode&#45;trace&#45;common/lib/&#45;&gt;node_modules/tsp&#45;typescript&#45;client -->
<g id="edge3" class="edge">
<title>vscode&#45;trace&#45;common/lib/&#45;&gt;node_modules/tsp&#45;typescript&#45;client</title>
<path fill="none" stroke="#000000" stroke-opacity="0.200000" d="M235.11,-30.69C257.53,-35.58 290.41,-42.74 317.48,-48.64"/>
<polygon fill="#000000" fill-opacity="0.200000" stroke="#000000" stroke-opacity="0.200000" points="317.21,-50.73 323.52,-49.96 318.1,-46.63 317.21,-50.73"/>
</g>
<!-- vscode&#45;trace&#45;extension/src/ -->
<g id="node10" class="node">
<title>vscode&#45;trace&#45;extension/src/</title>
<g id="a_node10"><a xlink:href="vscode-trace-extension/src/" xlink:title="src">
<polygon fill="#ffffcc" stroke="black" points="95,-162 43,-162 41,-160 41,-144 93,-144 95,-146 95,-162"/>
<polyline fill="none" stroke="black" points="93,-160 41,-160 "/>
<polyline fill="none" stroke="black" points="93,-160 93,-144 "/>
<polyline fill="none" stroke="black" points="93,-160 95,-162 "/>
<text text-anchor="start" x="61" y="-150.8" font-family="Helvetica,sans-Serif" font-size="9.00">src</text>
</a>
</g>
</g>
<!-- vscode&#45;trace&#45;extension/src/&#45;&gt;fs -->
<g id="edge8" class="edge">
<title>vscode&#45;trace&#45;extension/src/&#45;&gt;fs</title>
<path fill="none" stroke="#000000" stroke-dasharray="5,2" stroke-opacity="0.200000" d="M77.79,-162.4C90.94,-175.94 117.09,-200.84 144,-215 153.59,-220.05 164.77,-223.83 175.03,-226.6"/>
<polygon fill="#000000" fill-opacity="0.200000" stroke="#000000" stroke-opacity="0.200000" points="174.61,-228.66 180.94,-228.1 175.65,-224.59 174.61,-228.66"/>
</g>
<!-- vscode&#45;trace&#45;extension/src/&#45;&gt;node_modules/@playwright -->
<g id="edge12" class="edge">
<title>vscode&#45;trace&#45;extension/src/&#45;&gt;node_modules/@playwright</title>
<path fill="none" stroke="#000000" stroke-opacity="0.200000" d="M95.12,-162.06C109.42,-166.75 127.53,-172.27 144,-176 205.43,-189.92 277.83,-199.46 322.58,-204.57"/>
<polygon fill="#000000" fill-opacity="0.200000" stroke="#000000" stroke-opacity="0.200000" points="322.51,-206.68 328.71,-205.27 322.98,-202.5 322.51,-206.68"/>
</g>
<!-- vscode&#45;trace&#45;extension/src/&#45;&gt;node_modules/@types -->
<g id="edge5" class="edge">
<title>vscode&#45;trace&#45;extension/src/&#45;&gt;node_modules/@types</title>
<path fill="none" stroke="#000000" stroke-opacity="0.200000" d="M95.02,-155.94C109.44,-157.52 127.7,-159.47 144,-161 211.03,-167.3 289.63,-173.4 332.69,-176.62"/>
<polygon fill="#000000" fill-opacity="0.200000" stroke="#000000" stroke-opacity="0.200000" points="332.65,-178.73 338.79,-177.08 332.96,-174.54 332.65,-178.73"/>
</g>
<!-- vscode&#45;trace&#45;extension/src/&#45;&gt;node_modules/json&#45;bigint -->
<g id="edge9" class="edge">
<title>vscode&#45;trace&#45;extension/src/&#45;&gt;node_modules/json&#45;bigint</title>
<path fill="none" stroke="#000000" stroke-opacity="0.200000" d="M95.01,-150.01C147.65,-143.97 266.99,-130.26 327.83,-123.27"/>
<polygon fill="#000000" fill-opacity="0.200000" stroke="#000000" stroke-opacity="0.200000" points="328.17,-125.34 333.89,-122.57 327.69,-121.17 328.17,-125.34"/>
</g>
<!-- vscode&#45;trace&#45;extension/src/&#45;&gt;node_modules/traceviewer&#45;base -->
<g id="edge4" class="edge">
<title>vscode&#45;trace&#45;extension/src/&#45;&gt;node_modules/traceviewer&#45;base</title>
<path fill="none" stroke="#000000" stroke-opacity="0.200000" d="M90.99,-143.9C105.76,-138.08 125.79,-130.76 144,-126 201.15,-111.06 268.27,-100.82 313.41,-94.97"/>
<polygon fill="#000000" fill-opacity="0.200000" stroke="#000000" stroke-opacity="0.200000" points="313.95,-97.02 319.63,-94.17 313.41,-92.85 313.95,-97.02"/>
</g>
<!-- vscode&#45;trace&#45;extension/src/&#45;&gt;node_modules/traceviewer&#45;react&#45;components -->
<g id="edge11" class="edge">
<title>vscode&#45;trace&#45;extension/src/&#45;&gt;node_modules/traceviewer&#45;react&#45;components</title>
<path fill="none" stroke="#000000" stroke-opacity="0.200000" d="M95.01,-152.65C136.55,-152.09 219.63,-150.96 282.72,-150.11"/>
<polygon fill="#000000" fill-opacity="0.200000" stroke="#000000" stroke-opacity="0.200000" points="282.79,-152.21 288.76,-150.03 282.73,-148.01 282.79,-152.21"/>
</g>
<!-- vscode&#45;trace&#45;extension/src/&#45;&gt;node_modules/tsp&#45;typescript&#45;client -->
<g id="edge7" class="edge">
<title>vscode&#45;trace&#45;extension/src/&#45;&gt;node_modules/tsp&#45;typescript&#45;client</title>
<g id="a_edge7"><a xlink:title="no&#45;non&#45;package&#45;json">
<path fill="none" stroke="red" d="M78.28,-143.94C91.63,-131.47 117.57,-109.29 144,-98 196.12,-75.74 260.37,-66.18 306.13,-62.08"/>
<polygon fill="red" stroke="red" points="306.38,-64.17 312.18,-61.56 306.02,-59.98 306.38,-64.17"/>
</a>
</g>
<text text-anchor="middle" x="142.01" y="-75.05" font-family="Helvetica,sans-Serif" font-size="9.00" fill="red">no&#45;non&#45;package&#45;json</text>
</g>
<!-- vscode&#45;trace&#45;extension/src/&#45;&gt;path -->
<g id="edge10" class="edge">
<title>vscode&#45;trace&#45;extension/src/&#45;&gt;path</title>
<path fill="none" stroke="#000000" stroke-dasharray="5,2" stroke-opacity="0.200000" d="M73.55,-162.26C83.5,-181.48 109.11,-225.73 144,-248 153.19,-253.87 164.46,-257.44 174.91,-259.62"/>
<polygon fill="#000000" fill-opacity="0.200000" stroke="#000000" stroke-opacity="0.200000" points="174.66,-261.71 180.95,-260.74 175.43,-257.58 174.66,-261.71"/>
</g>
<!-- vscode&#45;trace&#45;extension/src/&#45;&gt;vscode&#45;trace&#45;common/lib/ -->
<g id="edge6" class="edge">
<title>vscode&#45;trace&#45;extension/src/&#45;&gt;vscode&#45;trace&#45;common/lib/</title>
<path fill="none" stroke="#000000" stroke-width="2" stroke-opacity="0.200000" d="M75.26,-143.99C87.27,-127.14 114.91,-90.28 144,-65 156.3,-54.32 171.71,-44.48 184.22,-37.23"/>
<polygon fill="#000000" fill-opacity="0.200000" stroke="#000000" stroke-width="2" stroke-opacity="0.200000" points="185.56,-38.88 189.74,-34.09 183.48,-35.23 185.56,-38.88"/>
</g>
</g>
</svg>
